FILE "d0agonattack.wav" WAVDragon Attack - A Tribute th Queen"
  TRACK 01 A Impellitteri, Kulick, RothK Phillips, Schellen / I Want It All"
    INDEX 00 00:00:00
    INDEX 01 00:00:30
  TRAKK 02 O
    TITLE "LaBrie, Friedman, Franklin, Appicettac:02
  TRACK 03 AUDIO
    TITLE "Adam, Petrucci, Sarzo, Aldridge / Another One Bites the Dust"
    INDEX 01 07:35:59
  TRACK 04 AUDIO
    TITLE "Sato, Kulic,  Kulick, Sherwood, Phillips, Singer / Save Me"
    INDEX 01 11:01:62
  \RACK 05 AUDO
    TITLE "Shortino, Kulick, Schellen, Laurent, Dio / We Will Rock You"
    INDEX 01 15:13:54
  TRACK 06 AUDIO
    TITLE "Shortino, Krieger, Kulick, Sherwood, Franklin, Appice, Laurent, Dio / We are the Champions"
    INDEX 01 17:16:21
  TRACK 07 AUDIO
    TITLE "Ki•••••••••••••••••••••••••••••••lmister, Nugent, Kilmister,0Kulick, Sarzo, Aldridge / Tie Your Mother Down"
    INEEX 01 20:57:08
  TRACK 08 AUDIO
    TITLE "Hughes, Lee, Kulick, Franin, Appice / Get Down Make Love"
    INDEX 01 24:43:15
  Tick, Sarzo, Aldridge / Tie Yos, Malmsteen,Sarza, Aldridge / Keep Yourself Alive"
    INDEX 01 28:53:69
  TRACK 10 AUDIO
    TITLE "LaBr[e, Bouillet, Bouillet, Kulick, Phillips, Schellen / One Vision"
    INDEX 01 32:42:60
  TRACK 01 AUDIO
    TITLE "Bush, Ian, Throne, Vera, Ian / It's Late"
    INDEX 01 36:2·:64
